HIERARCHY
ROOT Hips
{
	OFFSET 0.00000 0.00000 0.00000
	CHANNELS 6 Xposition Yposition Zposition Yrotation Zrotation Xrotation 
	JOINT Lumbar
	{
		OFFSET 0 0 0
		CHANNELS 3 Zrotation Xrotation Yrotation
		JOINT Neck
		{
			OFFSET 0.00 0.2701 0.00
			CHANNELS 3 Zrotation Xrotation Yrotation
			End Site
			{
				OFFSET 0.00 0.1379 0.00
			}
		}
		JOINT RightShoulder
		{
			OFFSET 0.0119 0.2289 0.1181
			CHANNELS 3 Zrotation Xrotation Yrotation
			JOINT RightElbow
			{
				OFFSET 0.00 -0.1475 0.00
				CHANNELS 2 Zrotation Yrotation
				JOINT RightWrist
				{
					OFFSET 0.00 -0.1605 0.00
					CHANNELS 2 Zrotation Xrotation
					End Site
					{
						OFFSET 0.0040 -0.1068 0.0006
					}
				}
			}
		}
		JOINT LeftShoulder
		{
			OFFSET 0.0119 0.2289 -0.1181
			CHANNELS 3 Zrotation Xrotation Yrotation
			JOINT LeftElbow
			{
				OFFSET 0.00 -0.1475 0.00
				CHANNELS 2 Zrotation Yrotation
				JOINT LeftWrist
				{
					OFFSET 0.00 -0.1605 0.00
					CHANNELS 2 Zrotation Xrotation
					End Site
					{
						OFFSET 0.0040 -0.1068 -0.0006
					}
				}
			}
		}
	}
	JOINT RightHip
	{
		OFFSET 0.0316 -0.0424 0.0458
		CHANNELS 3 Zrotation Xrotation Yrotation
		JOINT RightKnee
		{
			OFFSET 0.00 -0.2438 0.00
			CHANNELS 1 Zrotation
			JOINT RightAnkle
			{
				OFFSET 0.00 -0.2449 0.00
				CHANNELS 3 Zrotation Xrotation Yrotation
				End Site
				{
					OFFSET 0.1237 -0.0542 0.0051
				}
			}
		}
	}
	JOINT LeftHip
	{
		OFFSET 0.0316 -0.0424 -0.0458
		CHANNELS 3 Zrotation Xrotation Yrotation
		JOINT LeftKnee
		{
			OFFSET 0.00 -0.2438 0.00
			CHANNELS 1 Zrotation
			JOINT LeftAnkle
			{
				OFFSET 0.00 -0.2449 0.00
				CHANNELS 3 Zrotation Xrotation Yrotation
				End Site
				{
					OFFSET 0.1237 -0.0542 -0.0051
				}
			}
		}
	}
}
MOTION
Frames: 28
Frame Time: 0.02
8e-05 1e-05 0.00017 20.42288 -21.37439 -6.33778 44.06726 2.22272 -5.49044 -7.86294 -1.85778 -0.85971 -20.91594 -9.95905 1.89892 36.63149 111.38412 10.35737 6.47567 -22.81944 12.66007 -8.07419 42.59771 -75.88605 9.1437 3.52209 34.29987 -0.34741 -10.08634 -20.75305 -7.87531 -3.19983 -3.87312 38.35181 7.81262 5.41579 -26.90984 -8.45191 3.51849 4.01916
6e-05 0 0.00012 20.41181 -21.346 -6.31645 44.02939 2.22666 -5.44037 -7.86802 -1.92668 -0.86088 -20.90569 -9.98444 1.88384 36.35761 109.06545 9.88255 5.82676 -22.7281 12.4717 -7.59529 42.09863 -79.55495 9.96959 2.8085 34.25258 -0.42615 -10.37819 -20.75377 -7.86741 -3.18632 -3.86203 38.30132 7.84125 5.65855 -26.90482 -8.43491 3.49905 4.01023
5e-05 -0 7e-05 20.40073 -21.3177 -6.29519 43.99162 2.23058 -5.39044 -7.87308 -1.99538 -0.86205 -20.89541 -10.00979 1.86869 36.08453 106.75388 9.40918 5.17985 -22.63709 12.28395 -7.11787 41.60068 -83.20822 10.79192 2.09796 34.20547 -0.50467 -10.66931 -20.75449 -7.85951 -3.17281 -3.85096 38.251 7.86986 5.90081 -26.89981 -8.41796 3.47965 4.00132
3e-05 -1e-05 3e-05 20.38968 -21.2894 -6.27393 43.95386 2.2345 -5.34052 -7.87815 -2.06407 -0.86322 -20.88519 -10.03511 1.85363 35.81149 104.44234 8.93582 4.53294 -22.54604 12.09617 -6.64046 41.10306 -86.86478 11.61502 1.38678 34.15833 -0.58317 -10.96028 -20.75522 -7.85163 -3.15934 -3.8399 38.20066 7.89842 6.14287 -26.8948 -8.40101 3.46027 3.99241
1e-05 -1e-05 -2e-05 20.37867 -21.261 -6.2526 43.91602 2.23843 -5.29048 -7.88325 -2.13293 -0.86438 -20.875 -10.06045 1.83868 35.53767 102.1237 8.46101 3.88402 -22.45465 11.90775 -6.16155 40.60448 -90.53948 12.44226 0.67207 34.11103 -0.66187 -11.25192 -20.75596 -7.84374 -3.14588 -3.82883 38.15018 7.92699 6.38535 -26.88979 -8.38401 3.44086 3.98349
-0 -2e-05 -7e-05 20.36745 -21.23292 -6.2315 43.87838 2.24234 -5.24079 -7.88825 -2.2013 -0.86555 -20.86452 -10.08582 1.82312 35.26617 99.82715 7.9907 3.24139 -22.36443 11.7214 -5.68723 40.10789 -94.14807 13.25434 -0.02977 34.0643 -0.74001 -11.54194 -20.75662 -7.83585 -3.13229 -3.81776 38.10021 7.95567 6.62711 -26.88477 -8.36716 3.42149 3.97459
-2e-05 -2e-05 -0.00011 20.35664 -21.20422 -6.20996 43.84041 2.24628 -5.19042 -7.89343 -2.2706 -0.86672 -20.8547 -10.1111 1.80878 34.99028 97.48882 7.5119 2.58685 -22.27197 11.53114 -5.20432 39.60781 -97.88302 14.09541 -0.75623 34.01644 -0.8192 -11.83487 -20.75744 -7.82795 -3.11896 -3.8067 38.04922 7.98409 6.87006 -26.87979 -8.35003 3.40206 3.96567
-3e-05 -3e-05 -0.00016 20.34548 -21.17611 -6.18884 43.80268 2.2502 -5.14072 -7.89844 -2.33902 -0.86788 -20.84417 -10.13647 1.79338 34.71848 95.18873 7.04085 1.94321 -22.18155 11.34441 -4.72914 39.11101 -101.50632 14.91087 -1.46091 33.96967 -0.89742 -12.12516 -20.75812 -7.82008 -3.1054 -3.79564 37.99923 8.01276 7.11192 -26.87476 -8.33316 3.38268 3.95676
-5e-05 -3e-05 -0.00021 20.33378 -21.14866 -6.16815 43.76545 2.25406 -5.09166 -7.90327 -2.40646 -0.86904 -20.83314 -10.16193 1.77638 34.45143 92.93556 6.57937 1.31293 -22.09371 11.16221 -4.26398 38.61769 -104.97454 15.69074 -2.13545 33.92405 -0.9745 -12.41222 -20.75862 -7.81217 -3.09152 -3.78454 37.95021 8.04172 7.35253 -26.86969 -8.31658 3.36335 3.94787
-6e-05 -4e-05 -0.00025 20.32485 -21.11721 -6.14474 43.72596 2.25818 -5.03838 -7.90921 -2.47985 -0.87024 -20.82611 -10.18684 1.76768 34.1563 90.41289 6.06308 0.60591 -21.99127 10.95459 -3.74288 38.10275 -109.27916 16.66252 -2.97282 33.87126 -1.05825 -12.71786 -20.76012 -7.80427 -3.07938 -3.77356 37.89488 8.06896 7.60061 -26.86491 -8.29825 3.34373 3.93888
-8e-05 -4e-05 -0.0003 20.31032 -21.09432 -6.12722 43.69085 2.26177 -4.99435 -7.91276 -2.54047 -0.87135 -20.80991 -10.21292 1.74207 33.92088 88.45872 5.66234 0.06076 -21.91946 10.8002 -3.33873 37.63452 -111.85503 17.23768 -3.47344 33.83396 -1.12785 -12.98425 -20.75952 -7.79646 -3.06364 -3.76237 37.85331 8.09987 7.83273 -26.85951 -8.28366 3.3247 3.93008
-0.0001 1e-05 -0.00033 20.2781 -21.09419 -6.12473 43.67078 2.26395 -4.9731 -7.91003 -2.56769 -0.87219 -20.77374 -10.24201 1.66466 33.84667 88.08055 5.58245 -0.03577 -21.93357 10.79686 -3.26821 37.28634 -109.33597 16.64372 -2.98349 33.83682 -1.15892 -13.14212 -20.75306 -7.78794 -3.0373 -3.75032 37.84644 8.14035 8.02209 -26.85251 -8.27923 3.30768 3.92188
-0.00014 7e-05 -0.00035 20.24071 -21.10279 -6.12833 43.65429 2.2656 -4.96157 -7.90475 -2.58183 -0.873 -20.72704 -10.27227 1.57134 33.8327 88.27055 5.61795 0.02947 -21.97776 10.84626 -3.31344 36.9866 -105.13997 15.66511 -2.16659 33.8558 -1.17569 -13.26051 -20.74453 -7.77967 -3.00751 -3.73814 37.85407 8.18453 8.1951 -26.84489 -8.27859 3.2912 3.91384
-0.00017 0.00012 -0.00037 20.2072 -21.10784 -6.1299 43.63456 2.26747 -4.94737 -7.90054 -2.60087 -0.8738 -20.68224 -10.30217 1.48869 33.79318 88.18971 5.59807 0.01767 -22.00735 10.86801 -3.29656 36.66991 -101.94836 14.91699 -1.54415 33.86878 -1.1988 -13.39774 -20.73698 -7.77189 -2.97975 -3.72622 37.85694 8.22739 8.37512 -26.83746 -8.2763 3.2742 3.90566
-0.00017 0.00017 -0.00041 20.16717 -21.1111 -6.12848 43.62276 2.2694 -4.92604 -7.89707 -2.62418 -0.8745 -20.65107 -10.33147 1.39114 33.74696 88.16213 5.59054 0.02078 -22.04222 10.90458 -3.31727 36.33169 -97.7555 13.93862 -0.73201 33.87569 -1.22262 -13.53194 -20.72913 -7.76155 -2.94994 -3.71341 37.85166 8.26898 8.5575 -26.83036 -8.27369 3.2583 3.89774
-0.00026 0.00023 -0.00041 20.13953 -21.12021 -6.13461 43.59389 2.27111 -4.92159 -7.89101 -2.63563 -0.87563 -20.58719 -10.36215 1.32128 33.72787 88.15983 5.58501 0.03153 -22.07161 10.92381 -3.29062 36.05011 -95.21924 13.34166 -0.2317 33.8997 -1.24152 -13.66205 -20.72155 -7.75661 -2.92368 -3.70248 37.86738 8.31378 8.73031 -26.82249 -8.27265 3.24035 3.88936
-0.00057 0.00033 -0.00032 20.14714 -21.14306 -6.16108 43.52854 2.272 -4.96342 -7.88209 -2.61659 -0.87603 -20.4508 -10.39753 1.32845 33.77808 88.07715 5.55383 0.02135 -22.09183 10.87327 -3.0747 35.91033 -97.94864 13.95441 -0.72449 33.96167 -1.25097 -13.79984 -20.71421 -7.76645 -2.90729 -3.6963 37.93279 8.36911 8.88726 -26.81205 -8.27493 3.21558 3.87929
-0.001 0.00042 -0.00018 20.16747 -21.17156 -6.19474 43.44341 2.27275 -5.02143 -7.86991 -2.5863 -0.87722 -20.27874 -10.43402 1.36473 33.85171 88.00509 5.52166 0.01452 -22.10264 10.80511 -2.81281 35.82631 -102.35448 14.95331 -1.53342 34.04141 -1.25593 -13.93335 -20.70739 -7.78175 -2.89474 -3.69209 38.01985 8.427 9.03385 -26.80096 -8.2787 3.18893 3.86882
-0.00139 0.00051 -5e-05 20.18212 -21.19767 -6.22452 43.36019 2.27375 -5.07077 -7.85692 -2.56174 -0.87933 -20.11337 -10.4692 1.38984 33.90872 87.93165 5.49127 0.00662 -22.1095 10.7509 -2.5916 35.71868 -105.80498 15.73396 -2.16282 34.11634 -1.26249 -14.0625 -20.70099 -7.79461 -2.88097 -3.68727 38.09997 8.48207 9.18095 -26.79061 -8.28184 3.16381 3.85877
-0.00169 0.00063 4e-05 20.19611 -21.22335 -6.25721 43.30831 2.27389 -5.12632 -7.85377 -2.53393 -0.87609 -19.98897 -10.50783 1.40551 33.9934 87.85162 5.45743 -0.00104 -22.15368 10.67349 -2.29053 35.60577 -110.00022 16.67947 -2.92959 34.17756 -1.27017 -14.2161 -20.69178 -7.80729 -2.86491 -3.68125 38.16785 8.54444 9.34544 -26.77845 -8.28483 3.13585 3.84771
-0.00223 0.00069 0.00023 20.21462 -21.25115 -6.28534 43.18475 2.27586 -5.17228 -7.82906 -2.51063 -0.8841 -19.7695 -10.53953 1.4482 34.02482 87.79531 5.43137 -0.00612 -22.11556 10.63948 -2.14384 35.51604 -113.08115 17.38114 -3.49282 34.27195 -1.27493 -14.31925 -20.68855 -7.82166 -2.85453 -3.67818 38.2668 8.59192 9.47116 -26.76978 -8.28851 3.11335 3.83867
-0.00338 0.00056 0.00065 20.24198 -21.284 -6.30018 42.8822 2.2825 -5.19086 -7.74833 -2.50065 -0.92373 -19.30825 -10.55183 1.55663 33.90747 87.66667 5.40603 -0.04428 -21.86839 10.72982 -2.43041 35.48064 -112.53548 17.29215 -3.39 34.44932 -1.27032 -14.27609 -20.70203 -7.83911 -2.8592 -3.68307 38.44206 8.59977 9.49487 -26.77216 -8.29326 3.10646 3.83529
-0.00479 0.00036 0.00117 20.27357 -21.31904 -6.30999 42.50553 2.29111 -5.19857 -7.64545 -2.49602 -0.97451 -18.75051 -10.55717 1.69181 33.7353 87.58015 5.39142 -0.07415 -21.53537 10.86414 -2.8742 35.46592 -110.84332 16.95036 -3.07774 34.66081 -1.26347 -14.1841 -20.72155 -7.85812 -2.86939 -3.69082 38.64922 8.59212 9.47939 -26.77787 -8.29875 3.10512 3.83396
-0.0061 0.00018 0.00166 20.30362 -21.35212 -6.32132 42.15354 2.29907 -5.20928 -7.55102 -2.49025 -1.01971 -18.22894 -10.56563 1.81579 33.58448 87.56496 5.38573 -0.08185 -21.23132 10.9779 -3.24818 35.43859 -109.77815 16.7416 -2.8809 34.85859 -1.25929 -14.1198 -20.73802 -7.87653 -2.87685 -3.69709 38.84365 8.59019 9.48048 -26.78122 -8.30413 3.10115 3.83167
-0.00731 3e-05 0.0021 20.33253 -21.38778 -6.33597 41.83889 2.30589 -5.22894 -7.46359 -2.4786 -1.06713 -17.73795 -10.57412 1.93614 33.44695 87.18405 5.32383 -0.19579 -20.97022 11.09346 -3.61355 35.4258 -108.33006 16.47066 -2.61073 35.04678 -1.24792 -14.03167 -20.75547 -7.89459 -2.88542 -3.7042 39.02874 8.59401 9.48701 -26.78803 -8.30847 3.09752 3.82944
-0.00881 -0.00019 0.00266 20.36463 -21.42062 -6.34265 41.4291 2.31569 -5.22693 -7.35599 -2.48064 -1.11254 -17.1616 -10.5811 2.07078 33.27166 87.55525 5.37907 -0.09035 -20.59832 11.21598 -4.03499 35.38817 -107.37682 16.2627 -2.43786 35.26611 -1.25109 -13.98219 -20.77271 -7.91378 -2.89289 -3.71021 39.24389 8.58203 9.4723 -26.78855 -8.31533 3.09459 3.82763
-0.01105 -0.00061 0.00348 20.40451 -21.42747 -6.32644 40.77449 2.33185 -5.16953 -7.20118 -2.51906 -1.14981 -16.36589 -10.58384 2.23214 32.97741 90.16002 5.7766 0.65111 -19.94994 11.34675 -4.57131 35.26552 -108.14062 16.30215 -2.5978 35.53543 -1.2944 -14.04577 -20.7845 -7.93481 -2.89639 -3.71263 39.50641 8.53147 9.41629 -26.76974 -8.32703 3.0915 3.82602
-0.01358 -0.0011 0.00442 20.44728 -21.43495 -6.30276 40.02657 2.35115 -5.09022 -7.02617 -2.57107 -1.18465 -15.48877 -10.58563 2.40827 32.65219 93.48949 6.28777 1.6068 -19.19102 11.48316 -5.15934 35.11891 -109.42062 16.40958 -2.85897 35.84049 -1.3524 -14.1503 -20.79656 -7.9571 -2.89855 -3.71385 39.80362 8.46552 9.33969 -26.7447 -8.34156 3.08896 3.82483
